<?xml version="1.0" encoding="utf-8"?>
<!-- Generator: Adobe Illustrator 16.0.3, SVG Export Plug-In . SVG Version: 6.00 Build 0)  -->
<!DOCTYPE svg PUBLIC "-//W3C//DTD SVG 1.1//EN" "http://www.w3.org/Graphics/SVG/1.1/DTD/svg11.dtd">
<svg version="1.1" id="Layer_1" xmlns="http://www.w3.org/2000/svg" xmlns:xlink="http://www.w3.org/1999/xlink" x="0px" y="0px"
	 width="612px" height="612px" viewBox="0 0 612 612" enable-background="new 0 0 612 612" xml:space="preserve">
<g>
	<path fill="#3DB39E" d="M355.101,496.828c0-78.271,63.462-141.729,141.729-141.729c13.243,0,26.046,1.969,38.218,5.37V171.445
		L362.935,0H38.219C17.123,0,0,17.103,0,38.217v535.047c0,21.114,17.121,38.219,38.217,38.219h375.528
		C378.26,585.723,355.101,544.048,355.101,496.828z"/>
	<path fill="#2F8A78" d="M534.496,171.979H401.288c-21.097,0-38.217-17.121-38.217-38.217V0.382L534.496,171.979z"/>
	<path fill="#3DB39E" d="M496.83,382.692c63.326,0,114.654,51.346,114.654,114.653C611.484,560.635,560.158,612,496.83,612
		c-63.288,0-114.653-51.363-114.653-114.653C382.177,434.038,433.542,382.692,496.83,382.692z"/>
	<path fill="#FFFFFF" d="M535.05,478.236H515.94v-19.109c0-10.568-8.542-19.109-19.11-19.109c-10.567,0-19.109,8.541-19.109,19.109
		v19.109h-19.108c-10.568,0-19.109,8.542-19.109,19.109c0,10.586,8.541,19.109,19.109,19.109h19.108v19.109
		c0,10.586,8.542,19.108,19.109,19.108c10.566,0,19.11-8.521,19.11-19.108v-19.109h19.108c10.568,0,19.109-8.521,19.109-19.109
		C554.157,486.798,545.618,478.236,535.05,478.236z"/>
</g>
<text transform="matrix(1 0 0 1 79.5 382.6924)" fill="#FFFFFF" font-family="'Arial-BoldMT'" font-size="160">XLS</text>
</svg>
