<?xml version="1.0" encoding="utf-8"?>
<!-- Generator: Adobe Illustrator 16.0.3, SVG Export Plug-In . SVG Version: 6.00 Build 0)  -->
<!DOCTYPE svg PUBLIC "-//W3C//DTD SVG 1.1//EN" "http://www.w3.org/Graphics/SVG/1.1/DTD/svg11.dtd">
<svg version="1.1" id="Layer_1" xmlns="http://www.w3.org/2000/svg" xmlns:xlink="http://www.w3.org/1999/xlink" x="0px" y="0px"
	 width="612px" height="612px" viewBox="0 90 612 612" enable-background="new 0 90 612 612" xml:space="preserve">
<g>
	<path fill="#E2574C" d="M355.101,586.828c0-78.27,63.461-141.729,141.729-141.729c13.243,0,26.046,1.968,38.218,5.37V261.445
		L362.935,90H38.219C17.123,90,0,107.103,0,128.217v535.047c0,21.114,17.121,38.218,38.217,38.218h375.528
		C378.26,675.723,355.101,634.048,355.101,586.828z"/>
	<path fill="#B53629" d="M534.496,261.979H401.288c-21.097,0-38.217-17.121-38.217-38.217V90.382L534.496,261.979z"/>
	<path fill="#3DB39E" d="M496.83,472.692c63.326,0,114.654,51.346,114.654,114.654C611.484,650.635,560.158,702,496.83,702
		c-63.288,0-114.653-51.363-114.653-114.653C382.177,524.038,433.542,472.692,496.83,472.692z"/>
	<path fill="#FFFFFF" d="M535.05,568.236H515.94v-19.109c0-10.568-8.542-19.109-19.11-19.109c-10.567,0-19.109,8.541-19.109,19.109
		v19.109h-19.109c-10.568,0-19.109,8.542-19.109,19.11c0,10.586,8.541,19.109,19.109,19.109h19.109v19.109
		c0,10.586,8.542,19.109,19.109,19.109c10.566,0,19.11-8.521,19.11-19.109v-19.109h19.109c10.568,0,19.109-8.521,19.109-19.109
		C554.157,576.798,545.618,568.236,535.05,568.236z"/>
	<path fill="#FFFFFF" d="M391.693,379.747c6.401,0,9.535-5.58,9.535-10.987c0-5.6-3.268-11.007-9.535-11.007h-36.46
		c-7.128,0-11.102,5.904-11.102,12.421v89.601c0,7.988,4.547,12.421,10.7,12.421c6.115,0,10.683-4.433,10.683-12.421v-24.593h22.052
		c6.841,0,10.262-5.599,10.262-11.159c0-5.445-3.421-10.854-10.262-10.854h-22.052v-33.42H391.693z M268.46,357.752h-26.676
		c-7.242,0-12.383,4.969-12.383,12.344v89.755c0,9.152,7.395,12.02,12.688,12.02h27.995c33.134,0,55.013-21.803,55.013-55.454
		C325.081,380.836,304.481,357.752,268.46,357.752z M269.741,449.743h-16.262v-69.862h14.657c22.186,0,31.835,14.886,31.835,35.428
		C299.971,434.532,290.494,449.743,269.741,449.743z M172.019,357.752h-26.427c-7.472,0-11.638,4.929-11.638,12.421v89.601
		c0,7.988,4.777,12.421,11.197,12.421s11.197-4.433,11.197-12.421v-26.16h16.567c20.446,0,37.319-14.485,37.319-37.778
		C210.236,373.04,193.956,357.752,172.019,357.752z M171.58,412.596h-15.23v-33.804h15.23c9.401,0,15.382,7.337,15.382,16.911
		C186.942,405.258,180.981,412.596,171.58,412.596z"/>
</g>
</svg>
