<?xml version="1.0" encoding="utf-8"?>
<!-- Generator: Adobe Illustrator 16.0.3, SVG Export Plug-In . SVG Version: 6.00 Build 0)  -->
<!DOCTYPE svg PUBLIC "-//W3C//DTD SVG 1.1//EN" "http://www.w3.org/Graphics/SVG/1.1/DTD/svg11.dtd">
<svg version="1.1" id="Capa_1" xmlns="http://www.w3.org/2000/svg" xmlns:xlink="http://www.w3.org/1999/xlink" x="0px" y="0px"
	 width="612px" height="792px" viewBox="0 0 612 792" enable-background="new 0 0 612 792" xml:space="preserve">
<path fill="#585C64" d="M581.876,557.436L436.219,405.944c37.451-44.52,57.971-100.535,57.971-158.85
	C494.189,110.849,383.341,0,247.095,0C110.849,0,0,110.849,0,247.095s110.849,247.095,247.095,247.095
	c51.148,0,99.891-15.427,141.564-44.713l146.763,152.64c6.135,6.371,14.386,9.884,23.228,9.884c8.369,0,16.308-3.19,22.335-8.992
	C593.79,590.686,594.198,570.252,581.876,557.436z M247.095,64.459c100.707,0,182.636,81.928,182.636,182.635
	S347.802,429.73,247.095,429.73S64.459,347.802,64.459,247.095S146.388,64.459,247.095,64.459z"/>
</svg>
