<?xml version="1.0" encoding="utf-8"?>
<!-- Generator: Adobe Illustrator 16.0.3, SVG Export Plug-In . SVG Version: 6.00 Build 0)  -->
<!DOCTYPE svg PUBLIC "-//W3C//DTD SVG 1.1//EN" "http://www.w3.org/Graphics/SVG/1.1/DTD/svg11.dtd">
<svg version="1.1" id="Capa_1" xmlns="http://www.w3.org/2000/svg" xmlns:xlink="http://www.w3.org/1999/xlink" x="0px" y="0px"
	 width="512px" height="512px" viewBox="0 0 512 512" enable-background="new 0 0 512 512" xml:space="preserve">
<g>
	<path d="M424.846,206.767h-9.976v-46.692c0-86.361-68.533-158.503-154.192-160.043c-2.34-0.042-7.017-0.042-9.356,0
		C165.661,1.571,97.129,73.714,97.129,160.075v46.692h-9.978c-15.375,0-27.916,15.865-27.916,35.458v234.189
		c0,19.571,12.541,35.585,27.917,35.585h337.693c15.375,0,27.917-16.014,27.917-35.585V242.226
		C452.763,222.633,440.222,206.767,424.846,206.767z M287.637,359.082v70.764c0,8.103-6.783,14.96-14.893,14.96h-33.487
		c-8.11,0-14.894-6.857-14.894-14.96v-70.764c-7.865-7.742-12.444-18.447-12.444-30.289c0-22.441,17.347-41.725,39.404-42.616
		c2.337-0.095,7.019-0.095,9.357,0c22.057,0.892,39.403,20.175,39.403,42.616C300.081,340.635,295.502,351.34,287.637,359.082z
		 M349.114,206.767h-88.437h-9.356h-88.437v-46.692c0-51.444,41.807-93.98,93.114-93.98s93.116,42.536,93.116,93.98L349.114,206.767
		L349.114,206.767z"/>
</g>
</svg>
