<?xml version="1.0" encoding="utf-8"?>
<!-- Generator: Adobe Illustrator 16.0.3, SVG Export Plug-In . SVG Version: 6.00 Build 0)  -->
<!DOCTYPE svg PUBLIC "-//W3C//DTD SVG 1.1//EN" "http://www.w3.org/Graphics/SVG/1.1/DTD/svg11.dtd">
<svg version="1.1" id="Capa_0_xA0_Imagen_1_" xmlns="http://www.w3.org/2000/svg" xmlns:xlink="http://www.w3.org/1999/xlink"
	 x="0px" y="0px" width="512px" height="512px" viewBox="0 0 512 512" enable-background="new 0 0 512 512" xml:space="preserve">
<circle fill="#6194DA" cx="188" cy="188" r="188"/>
<g>
	<path fill-rule="evenodd" clip-rule="evenodd" d="M95.48,87.723c0-12.452,0-24.902,0-37.353c62.063,0,124.126,0,186.189,0
		c0,12.413,0,24.826,0,37.581c-3.938,0-7.466,0.166-10.97-0.054c-2.735-0.171-3.57,0.655-3.551,3.484
		c0.128,18.763,0.026,37.527,0.116,56.291c0.012,2.396-0.417,3.528-3.111,3.315c-2.949-0.235-5.936,0.048-8.897-0.091
		c-2.18-0.102-2.899,0.775-2.759,2.862c0.135,2.002-0.107,4.032,0.075,6.026c0.223,2.445-0.511,3.539-3.147,3.318
		c-2.471-0.206-4.984,0.091-7.461-0.085c-2.441-0.174-3.566,0.536-3.32,3.177c0.203,2.184-0.108,4.414,0.085,6.599
		c0.218,2.468-0.521,3.482-3.154,3.292c-3.048-0.223-6.126,0.011-9.186-0.08c-1.716-0.052-2.401,0.557-2.386,2.313
		c0.061,6.893,0.065,13.786,0.006,20.678c-0.014,1.746,0.619,2.371,2.357,2.32c3.252-0.098,6.514,0.067,9.764-0.061
		c2.053-0.08,2.705,0.719,2.587,2.693c-0.137,2.289,0.084,4.602-0.064,6.889c-0.136,2.082,0.743,2.676,2.685,2.602
		c2.964-0.113,5.937,0.038,8.902-0.061c1.756-0.058,2.393,0.611,2.324,2.35c-0.101,2.58,0.104,5.178-0.07,7.75
		c-0.156,2.348,0.828,3.012,3.011,2.908c2.865-0.135,5.757,0.141,8.611-0.084c2.635-0.207,3.167,0.821,3.153,3.275
		c-0.098,18.572,0.005,37.146-0.12,55.716c-0.019,2.746,0.838,3.467,3.43,3.32c3.596-0.203,7.212-0.051,10.847-0.051
		c0,12.927,0,25.42,0,38.156c-1.221,0-2.254,0-3.288,0c-48.92,0-97.84-0.005-146.76,0.002c-11.965,0.001-23.931,0.038-35.896,0.059
		c0-12.643,0-25.285,0-37.927c3.813-0.097,7.625-0.238,11.438-0.275c3.858-0.036,3.852,0.01,3.851-3.694
		c-0.003-18.564,0.042-37.128-0.058-55.69c-0.013-2.359,0.747-3.006,2.958-2.881c2.766,0.158,5.551-0.04,8.322,0.068
		c1.959,0.077,2.787-0.605,2.693-2.639c-0.124-2.674,0.043-5.36-0.063-8.035c-0.07-1.766,0.62-2.377,2.346-2.326
		c3.059,0.09,6.13-0.097,9.184,0.068c2.313,0.123,3.351-0.54,3.134-3.023c-0.191-2.185,0.084-4.407-0.074-6.597
		c-0.153-2.103,0.75-2.653,2.678-2.579c2.962,0.115,5.934-0.031,8.897,0.063c1.702,0.055,2.411-0.516,2.395-2.289
		c-0.062-6.89-0.059-13.779,0-20.669c0.014-1.722-0.583-2.402-2.343-2.347c-3.155,0.1-6.316-0.014-9.472,0.055
		c-1.61,0.035-2.212-0.591-2.155-2.207c0.097-2.772-0.038-5.553,0.062-8.324c0.066-1.849-0.61-2.579-2.499-2.509
		c-3.058,0.112-6.128-0.074-9.184,0.072c-2.199,0.105-3.189-0.521-2.985-2.9c0.195-2.28-0.012-4.592,0.075-6.885
		c0.065-1.708-0.579-2.439-2.33-2.391c-2.869,0.08-5.75-0.121-8.609,0.069c-2.423,0.16-3.043-0.704-3.03-3.085
		c0.098-18.659,0.055-37.319,0.056-55.979c0-3.963,0.002-3.937-3.83-3.979C103.119,87.901,99.3,87.799,95.48,87.723z M188.61,87.951
		c-8.81,0-17.62,0-26.429,0c-11.586,0-23.172,0-34.759-0.004c-1.56,0-3.017-0.227-3.004,2.233c0.077,15.225,0.06,30.449,0,45.674
		c-0.008,1.985,0.88,2.453,2.62,2.417c3.255-0.067,6.513,0.04,9.767-0.042c1.732-0.043,2.408,0.594,2.342,2.352
		c-0.104,2.774,0.032,5.555-0.061,8.329c-0.055,1.644,0.638,2.224,2.2,2.197c2.872-0.05,5.752,0.111,8.616-0.054
		c2.301-0.132,3.37,0.5,3.146,3.005c-0.197,2.185,0.074,4.409-0.08,6.601c-0.146,2.088,0.738,2.663,2.679,2.592
		c3.156-0.116,6.322,0.053,9.478-0.072c2.033-0.08,2.731,0.703,2.629,2.688c-0.127,2.483,0.115,4.99-0.082,7.465
		c-0.189,2.381,0.798,3.012,2.992,2.896c2.77-0.145,5.555,0.041,8.328-0.068c1.799-0.072,2.623,0.464,2.604,2.401
		c-0.068,6.798-0.048,13.597-0.003,20.396c0.011,1.605-0.617,2.219-2.22,2.181c-3.158-0.075-6.32,0.01-9.479-0.036
		c-1.565-0.024-2.269,0.573-2.207,2.205c0.087,2.295-0.104,4.605,0.071,6.891c0.178,2.32-0.499,3.287-2.998,3.119
		c-3.146-0.213-6.318,0.01-9.476-0.08c-1.75-0.049-2.38,0.615-2.309,2.355c0.109,2.678-0.068,5.367,0.07,8.042
		c0.106,2.046-0.688,2.698-2.671,2.606c-2.866-0.134-5.745,0.04-8.613-0.066c-1.931-0.073-2.824,0.507-2.68,2.604
		c0.158,2.286-0.068,4.6,0.066,6.89c0.115,1.971-0.52,2.767-2.588,2.677c-3.25-0.141-6.51,0.012-9.765-0.054
		c-1.691-0.034-2.37,0.556-2.363,2.339c0.05,15.225,0.048,30.449-0.001,45.675c-0.005,1.821,0.788,2.321,2.432,2.294
		c3.35-0.056,6.703-0.067,10.053,0.015c1.744,0.042,2.41-0.655,2.354-2.373c-0.082-2.486,0.04-4.981-0.058-7.467
		c-0.067-1.712,0.548-2.448,2.308-2.403c3.063,0.078,6.129,0.081,9.191,0.008c1.762-0.045,2.371,0.716,2.317,2.407
		c-0.083,2.583-0.177,5.184,0.06,7.747c0.069,0.74,1.224,1.927,1.935,1.968c3.531,0.203,7.081,0.043,10.623,0.108
		c1.801,0.033,2.313-0.798,2.243-2.467c-0.099-2.389,0.028-4.788-0.053-7.179c-0.059-1.758,0.457-2.675,2.426-2.599
		c2.964,0.116,5.938,0.116,8.903,0.008c1.969-0.072,2.485,0.851,2.426,2.608c-0.08,2.392,0.043,4.79-0.051,7.18
		c-0.066,1.707,0.572,2.476,2.311,2.445c3.158-0.054,6.319-0.071,9.479-0.008c1.749,0.034,2.385-0.708,2.324-2.416
		c-0.088-2.485,0.03-4.98-0.049-7.467c-0.055-1.742,0.672-2.384,2.391-2.34c3.254,0.081,6.511,0.074,9.766,0.004
		c1.729-0.037,2.413,0.661,2.357,2.381c-0.081,2.584-0.177,5.185,0.059,7.748c0.067,0.741,1.213,1.927,1.926,1.972
		c3.338,0.213,6.697,0.051,10.047,0.125c1.719,0.038,2.104-0.817,2.06-2.318c-0.07-2.487,0.032-4.98-0.049-7.467
		c-0.054-1.661,0.481-2.482,2.278-2.44c3.35,0.079,6.703,0.072,10.053,0.01c1.603-0.029,2.262,0.614,2.225,2.205
		c-0.062,2.584,0.019,5.172-0.055,7.756c-0.045,1.593,0.601,2.267,2.195,2.242c3.159-0.047,6.32-0.078,9.479,0.011
		c1.928,0.056,2.432-0.798,2.426-2.603c-0.053-15.034-0.066-30.066,0.008-45.101c0.01-2.076-0.762-2.681-2.691-2.614
		c-2.965,0.1-5.939-0.053-8.902,0.064c-1.785,0.069-2.395-0.636-2.34-2.342c0.08-2.487-0.065-4.983,0.061-7.467
		c0.09-1.779-0.605-2.396-2.322-2.358c-3.35,0.071-6.704-0.043-10.053,0.052c-1.727,0.049-2.432-0.557-2.373-2.315
		c0.09-2.773-0.049-5.555,0.064-8.328c0.072-1.746-0.556-2.402-2.304-2.354c-3.157,0.092-6.321-0.021-9.478,0.056
		c-1.591,0.038-2.258-0.515-2.188-2.161c0.099-2.39-0.116-4.799,0.072-7.177c0.187-2.368-0.782-2.993-2.991-2.885
		c-3.152,0.155-6.317-0.007-9.476,0.066c-1.571,0.036-2.261-0.507-2.251-2.146c0.049-6.798,0.064-13.597,0.006-20.395
		c-0.018-1.906,0.781-2.492,2.597-2.436c3.252,0.102,6.513-0.031,9.765,0.057c1.752,0.047,2.393-0.631,2.334-2.362
		c-0.096-2.773,0.037-5.556-0.063-8.329c-0.064-1.77,0.658-2.384,2.368-2.334c2.775,0.082,5.563-0.115,8.326,0.07
		c2.443,0.163,3.572-0.513,3.293-3.162c-0.207-1.989,0.111-4.032-0.078-6.025c-0.237-2.493,0.826-3.143,3.136-3.02
		c3.056,0.163,6.128-0.027,9.19,0.063c1.889,0.057,2.529-0.675,2.43-2.549c-0.145-2.674,0.021-5.363-0.081-8.041
		c-0.067-1.771,0.639-2.376,2.37-2.313c2.773,0.102,5.561-0.103,8.327,0.073c2.497,0.159,3.292-0.671,3.27-3.246
		c-0.12-14.554-0.138-29.11,0.011-43.663c0.029-2.862-0.874-3.499-3.572-3.485C229.019,87.997,208.813,87.951,188.61,87.951z
		 M188.347,76.043c20.393,0,40.785-0.04,61.178,0.05c2.495,0.011,3.484-0.638,3.25-3.229c-0.214-2.375-0.168-4.791-0.012-7.174
		c0.138-2.109-0.546-2.848-2.732-2.845c-40.977,0.053-81.955,0.048-122.932,0.009c-1.944-0.001-2.807,0.541-2.672,2.613
		c0.149,2.288,0.213,4.612-0.016,6.886c-0.288,2.865,0.626,3.777,3.619,3.757C148.134,75.978,168.24,76.041,188.347,76.043z
		 M188.864,301.273c-20.391,0-40.782,0.038-61.173-0.048c-2.466-0.01-3.541,0.597-3.271,3.213c0.206,1.989,0.177,4.027,0.007,6.022
		c-0.196,2.322,0.539,3.187,3,3.184c40.782-0.064,81.563-0.058,122.344-0.016c2.148,0.002,3.226-0.498,2.992-2.897
		c-0.193-1.991-0.216-4.037,0.007-6.022c0.324-2.897-0.923-3.498-3.597-3.484C229.071,301.322,208.968,301.277,188.864,301.273z"/>
	<path fill-rule="evenodd" clip-rule="evenodd" d="M160.381,125.861c-7.229,0-7.229,0-7.228-7.1
		c0.001-5.561,0.001-5.561,5.593-5.562c2.287,0,4.574,0.039,6.859-0.013c1.594-0.037,2.201,0.641,2.147,2.235
		c-0.09,2.665-0.124,5.339-0.004,8.001c0.086,1.909-0.694,2.561-2.509,2.458C163.625,125.788,162,125.861,160.381,125.861z"/>
	<path fill-rule="evenodd" clip-rule="evenodd" d="M160.339,263.513c7.377,0.001,7.402,0.001,7.37,7.37
		c-0.027,6.038,0.725,5.284-5.368,5.341c-2.394,0.021-4.804,0.155-7.169-0.101c-0.734-0.079-1.863-1.23-1.925-1.967
		c-0.233-2.757-0.021-5.547-0.131-8.319c-0.071-1.771,0.629-2.424,2.342-2.338C157.082,263.578,158.712,263.515,160.339,263.513z"/>
	<path fill-rule="evenodd" clip-rule="evenodd" d="M188.773,163.217c6.687-0.003,6.687-0.003,6.688,6.8
		c0.002,6.021,0.002,6.021-6.037,6.02c-1.621,0-3.249-0.1-4.858,0.027c-2.034,0.161-3.001-0.466-2.873-2.686
		c0.147-2.563,0.109-5.146,0.001-7.715c-0.078-1.875,0.646-2.602,2.508-2.468C185.718,163.304,187.249,163.217,188.773,163.217z"/>
	<path fill-rule="evenodd" clip-rule="evenodd" d="M188.747,238.455c6.717-0.001,6.717-0.001,6.714,6.806
		c-0.001,5.988-0.001,5.988-6.153,5.987c-7.577-0.001-7.617-0.002-7.566-7.433c0.039-5.967-1.004-5.306,5.285-5.358
		C187.6,238.452,188.174,238.456,188.747,238.455z"/>
	<path fill-rule="evenodd" clip-rule="evenodd" d="M188.571,150.939c-6.844-0.002-6.879-0.002-6.834-6.701
		c0.047-6.913-0.903-5.935,5.879-5.98c7.848-0.053,7.876-0.016,7.836,7.762c-0.027,5.31,0.909,4.904-4.87,4.919
		C189.911,150.941,189.241,150.939,188.571,150.939z"/>
	<path fill-rule="evenodd" clip-rule="evenodd" d="M188.569,276.228c-6.834,0-6.868-0.001-6.832-6.732
		c0.039-6.859-0.885-5.933,5.879-5.974c7.844-0.048,7.844-0.014,7.846,7.738c0,0.096,0,0.192,0,0.287
		c0.002,4.679,0.002,4.679-4.598,4.681C190.099,276.228,189.335,276.228,188.569,276.228z"/>
	<path fill-rule="evenodd" clip-rule="evenodd" d="M188.421,226.204c-6.693-0.002-6.693-0.002-6.693-6.811
		c0-5.986,0-5.986,6.045-5.986c1.811,0,3.625,0.078,5.43-0.025c1.778-0.1,2.346,0.666,2.286,2.364
		c-0.093,2.665-0.087,5.337,0.005,8.003c0.064,1.838-0.614,2.624-2.5,2.479C191.478,226.112,189.946,226.206,188.421,226.204z"/>
	<path fill-rule="evenodd" clip-rule="evenodd" d="M188.763,113.2c6.699-0.002,6.732-0.002,6.689,6.833
		c-0.041,6.679,0.842,5.783-5.73,5.818c-7.992,0.042-8.012,0.009-7.987-7.867c0.016-5.009-0.836-4.775,4.735-4.782
		C187.234,113.201,187.999,113.201,188.763,113.2z"/>
	<path fill-rule="evenodd" clip-rule="evenodd" d="M217.496,113.198c6.544,0.001,6.544,0.001,6.544,6.66
		c-0.002,6.003-0.002,6.004-6.075,6.003c-1.815,0-3.634-0.071-5.444,0.017c-1.767,0.086-2.353-0.667-2.283-2.383
		c0.107-2.575,0.146-5.165-0.008-7.735c-0.126-2.092,0.759-2.714,2.682-2.585C214.433,113.278,215.967,113.196,217.496,113.198z"/>
	<path fill-rule="evenodd" clip-rule="evenodd" d="M217.028,276.228c-6.758,0-6.758,0-6.759-6.772
		c-0.001-5.945-0.001-5.945,6.171-5.945c7.602,0.001,7.633,0.001,7.588,7.631c-0.032,5.563,0.836,5.048-4.994,5.085
		C218.366,276.231,217.698,276.228,217.028,276.228z"/>
	<path fill-rule="evenodd" clip-rule="evenodd" d="M203.026,138.042c-7.399,0-7.399,0-7.404-7.285c0-0.762,0.044-1.528-0.008-2.287
		c-0.113-1.669,0.548-2.447,2.304-2.41c3.335,0.072,6.679-0.092,10.003,0.109c0.756,0.045,2.002,1.125,2.066,1.818
		c0.258,2.742,0.255,5.527,0.063,8.276c-0.045,0.634-1.16,1.588-1.888,1.698C206.484,138.216,204.743,138.042,203.026,138.042z"/>
	<path fill-rule="evenodd" clip-rule="evenodd" d="M203.052,251.438c7.041-0.003,7.041-0.003,7.045,6.962
		c0,0.572-0.066,1.155,0.014,1.716c0.359,2.528-0.711,3.405-3.223,3.25c-2.946-0.183-5.914-0.09-8.871-0.022
		c-1.686,0.038-2.46-0.597-2.41-2.338c0.068-2.383,0.092-4.774-0.01-7.155c-0.082-1.931,0.813-2.522,2.589-2.429
		C199.804,251.507,201.43,251.439,203.052,251.438z"/>
	<path fill-rule="evenodd" clip-rule="evenodd" d="M174.741,126.074c6.827,0,6.842,0,6.823,6.764
		c-0.017,6.103,0.573,5.159-5.785,5.194c-7.938,0.042-7.938,0.01-7.926-7.882c0.005-4.068,0.005-4.069,4.02-4.074
		C172.829,126.073,173.785,126.075,174.741,126.074z"/>
	<path fill-rule="evenodd" clip-rule="evenodd" d="M174.894,251.436c6.681-0.001,6.704,0,6.666,6.566
		c-0.035,6.007,0.723,5.269-5.337,5.317c-2,0.017-4.002-0.058-6,0.024c-1.694,0.069-2.438-0.577-2.381-2.319
		c0.078-2.379,0.099-4.767-0.017-7.142c-0.092-1.885,0.653-2.592,2.499-2.467C171.84,251.518,173.37,251.436,174.894,251.436z"/>
</g>
<g>
	<g>
		<g>
			<path fill="#6194DA" d="M101.059,87.217c0-12.591,0-25.181,0-37.772c62.063,0,124.126,0,186.189,0c0,12.552,0,25.104,0,38.002
				c-3.939,0-7.467,0.168-10.97-0.054c-2.735-0.173-3.57,0.663-3.551,3.523c0.129,18.973,0.026,37.948,0.116,56.922
				c0.012,2.422-0.418,3.568-3.111,3.352c-2.95-0.237-5.937,0.049-8.897-0.091c-2.18-0.104-2.9,0.783-2.76,2.894
				c0.135,2.024-0.106,4.077,0.075,6.094c0.223,2.472-0.51,3.578-3.146,3.354c-2.472-0.208-4.985,0.093-7.462-0.086
				c-2.441-0.176-3.566,0.542-3.32,3.213c0.203,2.208-0.107,4.463,0.086,6.672c0.218,2.496-0.521,3.522-3.154,3.329
				c-3.049-0.225-6.125,0.011-9.187-0.082c-1.716-0.051-2.401,0.564-2.386,2.34c0.061,6.97,0.066,13.941,0.007,20.91
				c-0.015,1.765,0.618,2.397,2.357,2.345c3.252-0.099,6.513,0.068,9.763-0.061c2.053-0.081,2.707,0.726,2.588,2.724
				c-0.137,2.314,0.084,4.652-0.064,6.966c-0.136,2.105,0.742,2.706,2.684,2.63c2.965-0.114,5.938,0.039,8.902-0.06
				c1.757-0.059,2.393,0.618,2.325,2.375c-0.102,2.61,0.103,5.235-0.069,7.839c-0.158,2.371,0.826,3.043,3.01,2.939
				c2.865-0.137,5.756,0.141,8.61-0.086c2.635-0.209,3.167,0.831,3.154,3.313c-0.099,18.779,0.005,37.561-0.12,56.34
				c-0.019,2.776,0.837,3.506,3.43,3.357c3.596-0.206,7.211-0.053,10.846-0.053c0,13.073,0,25.706,0,38.586
				c-1.221,0-2.253,0-3.287,0c-48.92,0-97.84-0.005-146.761,0c-11.965,0.002-23.931,0.039-35.896,0.061c0-12.784,0-25.569,0-38.352
				c3.813-0.098,7.625-0.241,11.438-0.278c3.859-0.037,3.852,0.009,3.852-3.736c-0.003-18.772,0.042-37.543-0.058-56.316
				c-0.012-2.384,0.747-3.039,2.958-2.912c2.767,0.161,5.551-0.039,8.322,0.07c1.959,0.078,2.787-0.613,2.693-2.668
				c-0.124-2.704,0.043-5.422-0.062-8.125c-0.07-1.787,0.619-2.404,2.346-2.354c3.059,0.091,6.13-0.098,9.183,0.069
				c2.314,0.126,3.351-0.547,3.134-3.058c-0.191-2.208,0.085-4.455-0.074-6.67c-0.152-2.127,0.75-2.684,2.678-2.607
				c2.962,0.115,5.934-0.033,8.898,0.063c1.702,0.055,2.411-0.521,2.395-2.314c-0.061-6.967-0.059-13.936,0-20.9
				c0.015-1.742-0.583-2.43-2.343-2.374c-3.155,0.101-6.315-0.014-9.472,0.056c-1.61,0.035-2.212-0.598-2.156-2.232
				c0.098-2.803-0.037-5.614,0.063-8.417c0.066-1.869-0.61-2.607-2.499-2.537c-3.059,0.113-6.128-0.075-9.184,0.073
				c-2.2,0.106-3.19-0.527-2.986-2.932c0.195-2.306-0.012-4.644,0.075-6.962c0.066-1.728-0.578-2.467-2.33-2.418
				c-2.869,0.081-5.75-0.122-8.608,0.07c-2.424,0.162-3.043-0.712-3.031-3.119c0.097-18.869,0.055-37.738,0.056-56.606
				c0.001-4.008,0.002-3.981-3.83-4.023C108.697,87.397,104.878,87.293,101.059,87.217z M194.188,87.448
				c-8.809,0-17.62,0-26.428-0.001c-11.586,0-23.172,0.001-34.759-0.005c-1.561,0-3.017-0.229-3.004,2.258
				c0.077,15.396,0.06,30.791-0.001,46.186c-0.007,2.008,0.88,2.481,2.62,2.443c3.255-0.068,6.513,0.041,9.766-0.042
				c1.732-0.043,2.409,0.601,2.343,2.378c-0.104,2.805,0.032,5.618-0.062,8.422c-0.055,1.662,0.637,2.249,2.2,2.221
				c2.872-0.05,5.752,0.113,8.615-0.054c2.301-0.134,3.37,0.505,3.145,3.039c-0.196,2.209,0.074,4.458-0.079,6.675
				c-0.146,2.111,0.738,2.693,2.679,2.622c3.156-0.118,6.322,0.053,9.478-0.073c2.033-0.082,2.731,0.71,2.629,2.718
				c-0.127,2.512,0.115,5.046-0.082,7.548c-0.189,2.408,0.798,3.046,2.992,2.93c2.77-0.146,5.556,0.041,8.328-0.07
				c1.799-0.072,2.623,0.471,2.604,2.43c-0.068,6.874-0.047,13.749-0.003,20.624c0.011,1.623-0.618,2.243-2.22,2.204
				c-3.158-0.076-6.32,0.01-9.479-0.037c-1.565-0.024-2.27,0.581-2.208,2.231c0.087,2.32-0.105,4.657,0.07,6.968
				c0.178,2.348-0.498,3.324-2.997,3.153c-3.146-0.214-6.318,0.01-9.476-0.079c-1.751-0.051-2.38,0.622-2.309,2.381
				c0.11,2.708-0.068,5.428,0.07,8.132c0.105,2.069-0.688,2.729-2.671,2.636c-2.866-0.137-5.745,0.04-8.613-0.066
				c-1.931-0.075-2.825,0.512-2.681,2.631c0.158,2.313-0.067,4.651,0.066,6.968c0.115,1.992-0.52,2.798-2.588,2.707
				c-3.25-0.143-6.511,0.012-9.765-0.054c-1.691-0.035-2.369,0.562-2.364,2.365c0.051,15.394,0.048,30.789-0.001,46.186
				c-0.006,1.842,0.788,2.348,2.432,2.319c3.35-0.056,6.704-0.067,10.053,0.016c1.744,0.044,2.41-0.663,2.354-2.398
				c-0.082-2.516,0.04-5.038-0.057-7.552c-0.067-1.731,0.548-2.476,2.308-2.431c3.062,0.078,6.129,0.082,9.192,0.007
				c1.762-0.043,2.37,0.725,2.316,2.437c-0.083,2.61-0.177,5.24,0.06,7.833c0.069,0.748,1.224,1.949,1.935,1.99
				c3.531,0.205,7.081,0.043,10.623,0.109c1.801,0.034,2.313-0.806,2.243-2.494c-0.099-2.417,0.028-4.842-0.053-7.261
				c-0.059-1.777,0.456-2.704,2.426-2.627c2.964,0.117,5.938,0.117,8.903,0.009c1.969-0.073,2.484,0.86,2.426,2.637
				c-0.08,2.419,0.043,4.845-0.05,7.261c-0.067,1.726,0.571,2.502,2.31,2.472c3.158-0.054,6.32-0.071,9.479-0.008
				c1.749,0.036,2.386-0.715,2.325-2.442c-0.088-2.515,0.029-5.035-0.049-7.551c-0.055-1.761,0.671-2.409,2.39-2.366
				c3.254,0.083,6.512,0.076,9.766,0.005c1.729-0.038,2.413,0.667,2.358,2.406c-0.081,2.613-0.177,5.243,0.058,7.836
				c0.068,0.749,1.214,1.947,1.926,1.993c3.338,0.217,6.697,0.052,10.047,0.126c1.719,0.039,2.104-0.825,2.061-2.344
				c-0.071-2.516,0.031-5.037-0.049-7.551c-0.055-1.68,0.48-2.511,2.277-2.467c3.35,0.081,6.703,0.072,10.054,0.01
				c1.603-0.031,2.261,0.62,2.224,2.229c-0.061,2.613,0.02,5.229-0.055,7.843c-0.045,1.61,0.601,2.292,2.195,2.269
				c3.159-0.049,6.321-0.08,9.479,0.009c1.928,0.057,2.432-0.807,2.426-2.631c-0.052-15.202-0.065-30.404,0.008-45.607
				c0.01-2.099-0.761-2.709-2.69-2.643c-2.965,0.101-5.938-0.054-8.903,0.065c-1.785,0.07-2.394-0.643-2.34-2.368
				c0.08-2.515-0.065-5.04,0.061-7.552c0.09-1.798-0.605-2.42-2.322-2.383c-3.35,0.072-6.703-0.045-10.052,0.051
				c-1.728,0.051-2.433-0.562-2.374-2.34c0.092-2.805-0.049-5.618,0.064-8.422c0.072-1.766-0.555-2.43-2.303-2.379
				c-3.158,0.09-6.321-0.022-9.479,0.055c-1.591,0.039-2.257-0.519-2.188-2.185c0.099-2.417-0.116-4.853,0.072-7.259
				c0.187-2.394-0.782-3.026-2.99-2.916c-3.152,0.157-6.318-0.008-9.476,0.067c-1.572,0.036-2.262-0.515-2.25-2.17
				c0.048-6.874,0.063-13.749,0.004-20.624c-0.017-1.928,0.782-2.52,2.598-2.462c3.252,0.103,6.512-0.032,9.765,0.058
				c1.751,0.047,2.393-0.638,2.333-2.389c-0.096-2.805,0.037-5.618-0.063-8.422c-0.064-1.791,0.659-2.413,2.368-2.361
				c2.775,0.083,5.563-0.116,8.327,0.071c2.442,0.166,3.571-0.518,3.293-3.197c-0.208-2.011,0.112-4.077-0.079-6.092
				c-0.236-2.521,0.826-3.178,3.137-3.053c3.056,0.165,6.127-0.027,9.189,0.064c1.889,0.057,2.529-0.683,2.43-2.579
				c-0.145-2.704,0.021-5.423-0.081-8.13c-0.067-1.792,0.64-2.403,2.37-2.338c2.773,0.103,5.562-0.104,8.327,0.074
				c2.498,0.162,3.293-0.679,3.271-3.282c-0.121-14.717-0.139-29.436,0.011-44.152c0.029-2.894-0.874-3.538-3.573-3.523
				C234.597,87.494,214.393,87.447,194.188,87.448z M193.925,75.406c20.393,0,40.785-0.04,61.178,0.05
				c2.495,0.012,3.484-0.644,3.251-3.265c-0.215-2.401-0.168-4.845-0.012-7.255c0.138-2.133-0.547-2.88-2.733-2.877
				c-40.977,0.053-81.954,0.048-122.932,0.009c-1.944-0.002-2.807,0.546-2.671,2.642c0.148,2.314,0.212,4.664-0.016,6.964
				c-0.288,2.896,0.625,3.819,3.618,3.799C153.713,75.34,173.819,75.404,193.925,75.406z M194.442,303.162
				c-20.391,0-40.782,0.037-61.172-0.049c-2.466-0.012-3.542,0.603-3.271,3.248c0.206,2.013,0.177,4.073,0.008,6.091
				c-0.196,2.347,0.539,3.222,3,3.219c40.782-0.064,81.563-0.059,122.345-0.016c2.147,0.003,3.225-0.504,2.991-2.931
				c-0.193-2.014-0.216-4.082,0.008-6.09c0.323-2.929-0.924-3.537-3.598-3.524C234.649,303.212,214.546,303.165,194.442,303.162z"/>
			<path fill="#6194DA" d="M165.959,125.783c-7.229,0-7.229,0-7.228-7.18c0-5.623,0-5.623,5.593-5.624
				c2.287,0,4.574,0.039,6.86-0.014c1.594-0.038,2.2,0.648,2.146,2.259c-0.09,2.695-0.125,5.399-0.004,8.092
				c0.086,1.929-0.694,2.589-2.509,2.485C169.203,125.709,167.58,125.783,165.959,125.783z"/>
			<path fill="#6194DA" d="M165.918,264.978c7.376,0,7.402,0,7.369,7.451c-0.027,6.107,0.725,5.345-5.367,5.401
				c-2.394,0.022-4.804,0.158-7.17-0.102c-0.734-0.08-1.862-1.244-1.924-1.988c-0.233-2.787-0.021-5.61-0.132-8.414
				c-0.071-1.79,0.628-2.45,2.342-2.363C162.66,265.043,164.291,264.979,165.918,264.978z"/>
			<path fill="#6194DA" d="M194.352,163.557c6.687-0.002,6.687-0.002,6.688,6.876c0.002,6.089,0.002,6.088-6.037,6.087
				c-1.62,0-3.248-0.101-4.857,0.028c-2.035,0.163-3.001-0.471-2.873-2.715c0.146-2.593,0.109-5.205,0.001-7.803
				c-0.079-1.895,0.646-2.63,2.507-2.496C191.297,163.645,192.827,163.557,194.352,163.557z"/>
			<path fill="#6194DA" d="M194.326,239.639c6.716-0.001,6.716-0.001,6.714,6.883c-0.002,6.055-0.002,6.055-6.154,6.053
				c-7.576-0.001-7.616-0.001-7.566-7.515c0.039-6.033-1.004-5.365,5.285-5.419C193.178,239.636,193.753,239.641,194.326,239.639z"
				/>
			<path fill="#6194DA" d="M194.149,151.142c-6.843-0.002-6.879-0.002-6.832-6.776c0.046-6.99-0.904-6.001,5.877-6.047
				c7.848-0.054,7.877-0.016,7.836,7.849c-0.027,5.369,0.91,4.959-4.869,4.974C195.489,151.144,194.819,151.142,194.149,151.142z"/>
			<path fill="#6194DA" d="M194.148,277.835c-6.835,0-6.868-0.001-6.831-6.808c0.037-6.937-0.887-6,5.877-6.041
				c7.844-0.049,7.844-0.015,7.846,7.824c0,0.099,0,0.195,0,0.292c0.002,4.731,0.002,4.731-4.598,4.732
				C195.678,277.835,194.913,277.835,194.148,277.835z"/>
			<path fill="#6194DA" d="M194,227.25c-6.693-0.001-6.693-0.001-6.694-6.886c0-6.055,0-6.055,6.046-6.055
				c1.811,0,3.624,0.08,5.429-0.024c1.779-0.101,2.346,0.673,2.286,2.391c-0.091,2.695-0.086,5.396,0.006,8.091
				c0.063,1.86-0.615,2.654-2.5,2.508C197.056,227.157,195.524,227.252,194,227.25z"/>
			<path fill="#6194DA" d="M194.342,112.98c6.698-0.002,6.731-0.002,6.688,6.909c-0.041,6.753,0.842,5.848-5.73,5.883
				c-7.992,0.042-8.012,0.008-7.986-7.955c0.016-5.065-0.836-4.829,4.734-4.836C192.813,112.98,193.577,112.981,194.342,112.98z"/>
			<path fill="#6194DA" d="M223.075,112.978c6.543,0.002,6.543,0.002,6.543,6.735c-0.001,6.07-0.001,6.071-6.074,6.07
				c-1.815,0-3.635-0.071-5.445,0.018c-1.766,0.087-2.353-0.675-2.282-2.41c0.106-2.604,0.146-5.223-0.009-7.822
				c-0.126-2.115,0.76-2.744,2.682-2.614C220.013,113.059,221.546,112.976,223.075,112.978z"/>
			<path fill="#6194DA" d="M222.607,277.835c-6.759,0-6.759,0-6.759-6.849c-0.002-6.012-0.002-6.012,6.17-6.012
				c7.603,0.002,7.633,0.002,7.588,7.716c-0.032,5.627,0.836,5.104-4.993,5.144C223.944,277.838,223.276,277.835,222.607,277.835z"
				/>
			<path fill="#6194DA" d="M208.606,138.1c-7.4,0-7.4,0-7.406-7.367c0-0.771,0.044-1.545-0.008-2.312
				c-0.113-1.688,0.548-2.475,2.305-2.437c3.334,0.072,6.679-0.093,10.002,0.109c0.756,0.046,2.003,1.138,2.068,1.839
				c0.256,2.772,0.254,5.589,0.061,8.368c-0.045,0.642-1.159,1.606-1.888,1.718C212.063,138.276,210.321,138.1,208.606,138.1z"/>
			<path fill="#6194DA" d="M208.63,252.767c7.041-0.003,7.041-0.003,7.045,7.04c0,0.58-0.066,1.167,0.014,1.735
				c0.359,2.558-0.71,3.443-3.223,3.286c-2.946-0.185-5.914-0.091-8.871-0.022c-1.686,0.039-2.46-0.604-2.409-2.363
				c0.069-2.411,0.091-4.83-0.011-7.236c-0.082-1.953,0.814-2.551,2.59-2.457C205.382,252.836,207.009,252.768,208.63,252.767z"/>
			<path fill="#6194DA" d="M180.319,125.998c6.826,0,6.842,0,6.822,6.839c-0.016,6.171,0.574,5.217-5.784,5.252
				c-7.938,0.043-7.938,0.01-7.926-7.97c0.005-4.114,0.005-4.114,4.021-4.12C178.407,125.997,179.363,125.999,180.319,125.998z"/>
			<path fill="#6194DA" d="M180.472,252.765c6.682-0.001,6.705,0,6.666,6.64c-0.035,6.074,0.723,5.328-5.336,5.378
				c-2,0.017-4.003-0.06-6,0.023c-1.696,0.07-2.439-0.584-2.383-2.345c0.078-2.406,0.1-4.819-0.017-7.222
				c-0.092-1.906,0.654-2.62,2.499-2.495C177.419,252.847,178.948,252.765,180.472,252.765z"/>
		</g>
		<g>
			<path fill-rule="evenodd" clip-rule="evenodd" fill="#FFFFFF" d="M101.059,87.217c0-12.591,0-25.181,0-37.772
				c62.063,0,124.126,0,186.189,0c0,12.552,0,25.104,0,38.002c-3.939,0-7.467,0.168-10.97-0.054
				c-2.735-0.173-3.57,0.663-3.551,3.523c0.129,18.973,0.026,37.948,0.116,56.922c0.012,2.422-0.418,3.568-3.111,3.352
				c-2.95-0.237-5.937,0.049-8.897-0.091c-2.18-0.104-2.9,0.783-2.76,2.894c0.135,2.024-0.106,4.077,0.075,6.094
				c0.223,2.472-0.51,3.578-3.146,3.354c-2.472-0.208-4.985,0.093-7.462-0.086c-2.441-0.176-3.566,0.542-3.32,3.213
				c0.203,2.208-0.107,4.463,0.086,6.672c0.218,2.496-0.521,3.522-3.154,3.329c-3.049-0.225-6.125,0.011-9.187-0.082
				c-1.716-0.051-2.401,0.564-2.386,2.34c0.061,6.97,0.066,13.941,0.007,20.91c-0.015,1.765,0.618,2.397,2.357,2.345
				c3.252-0.099,6.513,0.068,9.763-0.061c2.053-0.081,2.707,0.726,2.588,2.724c-0.137,2.314,0.084,4.652-0.064,6.966
				c-0.136,2.105,0.742,2.706,2.684,2.63c2.965-0.114,5.938,0.039,8.902-0.06c1.757-0.059,2.393,0.618,2.325,2.375
				c-0.102,2.61,0.103,5.235-0.069,7.839c-0.158,2.371,0.826,3.043,3.01,2.939c2.865-0.137,5.756,0.141,8.61-0.086
				c2.635-0.209,3.167,0.831,3.154,3.313c-0.099,18.779,0.005,37.561-0.12,56.34c-0.019,2.776,0.837,3.506,3.43,3.357
				c3.596-0.206,7.211-0.053,10.846-0.053c0,13.073,0,25.706,0,38.586c-1.221,0-2.253,0-3.287,0c-48.92,0-97.84-0.005-146.761,0
				c-11.965,0.002-23.931,0.039-35.896,0.061c0-12.784,0-25.569,0-38.352c3.813-0.098,7.625-0.241,11.438-0.278
				c3.859-0.037,3.852,0.009,3.852-3.736c-0.003-18.772,0.042-37.543-0.058-56.316c-0.012-2.384,0.747-3.039,2.958-2.912
				c2.767,0.161,5.551-0.039,8.322,0.07c1.959,0.078,2.787-0.613,2.693-2.668c-0.124-2.704,0.043-5.422-0.062-8.125
				c-0.07-1.787,0.619-2.404,2.346-2.354c3.059,0.091,6.13-0.098,9.183,0.069c2.314,0.126,3.351-0.547,3.134-3.058
				c-0.191-2.208,0.085-4.455-0.074-6.67c-0.152-2.127,0.75-2.684,2.678-2.607c2.962,0.115,5.934-0.033,8.898,0.063
				c1.702,0.055,2.411-0.521,2.395-2.314c-0.061-6.967-0.059-13.936,0-20.9c0.015-1.742-0.583-2.43-2.343-2.374
				c-3.155,0.101-6.315-0.014-9.472,0.056c-1.61,0.035-2.212-0.598-2.156-2.232c0.098-2.803-0.037-5.614,0.063-8.417
				c0.066-1.869-0.61-2.607-2.499-2.537c-3.059,0.113-6.128-0.075-9.184,0.073c-2.2,0.106-3.19-0.527-2.986-2.932
				c0.195-2.306-0.012-4.644,0.075-6.962c0.066-1.728-0.578-2.467-2.33-2.418c-2.869,0.081-5.75-0.122-8.608,0.07
				c-2.424,0.162-3.043-0.712-3.031-3.119c0.097-18.869,0.055-37.738,0.056-56.606c0.001-4.008,0.002-3.981-3.83-4.023
				C108.697,87.397,104.878,87.293,101.059,87.217z M194.188,87.448c-8.809,0-17.62,0-26.428-0.001
				c-11.586,0-23.172,0.001-34.759-0.005c-1.561,0-3.017-0.229-3.004,2.258c0.077,15.396,0.06,30.791-0.001,46.186
				c-0.007,2.008,0.88,2.481,2.62,2.443c3.255-0.068,6.513,0.041,9.766-0.042c1.732-0.043,2.409,0.601,2.343,2.378
				c-0.104,2.805,0.032,5.618-0.062,8.422c-0.055,1.662,0.637,2.249,2.2,2.221c2.872-0.05,5.752,0.113,8.615-0.054
				c2.301-0.134,3.37,0.505,3.145,3.039c-0.196,2.209,0.074,4.458-0.079,6.675c-0.146,2.111,0.738,2.693,2.679,2.622
				c3.156-0.118,6.322,0.053,9.478-0.073c2.033-0.082,2.731,0.71,2.629,2.718c-0.127,2.512,0.115,5.046-0.082,7.548
				c-0.189,2.408,0.798,3.046,2.992,2.93c2.77-0.146,5.556,0.041,8.328-0.07c1.799-0.072,2.623,0.471,2.604,2.43
				c-0.068,6.874-0.047,13.749-0.003,20.624c0.011,1.623-0.618,2.243-2.22,2.204c-3.158-0.076-6.32,0.01-9.479-0.037
				c-1.565-0.024-2.27,0.581-2.208,2.231c0.087,2.32-0.105,4.657,0.07,6.968c0.178,2.348-0.498,3.324-2.997,3.153
				c-3.146-0.214-6.318,0.01-9.476-0.079c-1.751-0.051-2.38,0.622-2.309,2.381c0.11,2.708-0.068,5.428,0.07,8.132
				c0.105,2.069-0.688,2.729-2.671,2.636c-2.866-0.137-5.745,0.04-8.613-0.066c-1.931-0.075-2.825,0.512-2.681,2.631
				c0.158,2.313-0.067,4.651,0.066,6.968c0.115,1.992-0.52,2.798-2.588,2.707c-3.25-0.143-6.511,0.012-9.765-0.054
				c-1.691-0.035-2.369,0.562-2.364,2.365c0.051,15.394,0.048,30.789-0.001,46.186c-0.006,1.842,0.788,2.348,2.432,2.319
				c3.35-0.056,6.704-0.067,10.053,0.016c1.744,0.044,2.41-0.663,2.354-2.398c-0.082-2.516,0.04-5.038-0.057-7.552
				c-0.067-1.731,0.548-2.476,2.308-2.431c3.062,0.078,6.129,0.082,9.192,0.007c1.762-0.043,2.37,0.725,2.316,2.437
				c-0.083,2.61-0.177,5.24,0.06,7.833c0.069,0.748,1.224,1.949,1.935,1.99c3.531,0.205,7.081,0.043,10.623,0.109
				c1.801,0.034,2.313-0.806,2.243-2.494c-0.099-2.417,0.028-4.842-0.053-7.261c-0.059-1.777,0.456-2.704,2.426-2.627
				c2.964,0.117,5.938,0.117,8.903,0.009c1.969-0.073,2.484,0.86,2.426,2.637c-0.08,2.419,0.043,4.845-0.05,7.261
				c-0.067,1.726,0.571,2.502,2.31,2.472c3.158-0.054,6.32-0.071,9.479-0.008c1.749,0.036,2.386-0.715,2.325-2.442
				c-0.088-2.515,0.029-5.035-0.049-7.551c-0.055-1.761,0.671-2.409,2.39-2.366c3.254,0.083,6.512,0.076,9.766,0.005
				c1.729-0.038,2.413,0.667,2.358,2.406c-0.081,2.613-0.177,5.243,0.058,7.836c0.068,0.749,1.214,1.947,1.926,1.993
				c3.338,0.217,6.697,0.052,10.047,0.126c1.719,0.039,2.104-0.825,2.061-2.344c-0.071-2.516,0.031-5.037-0.049-7.551
				c-0.055-1.68,0.48-2.511,2.277-2.467c3.35,0.081,6.703,0.072,10.054,0.01c1.603-0.031,2.261,0.62,2.224,2.229
				c-0.061,2.613,0.02,5.229-0.055,7.843c-0.045,1.61,0.601,2.292,2.195,2.269c3.159-0.049,6.321-0.08,9.479,0.009
				c1.928,0.057,2.432-0.807,2.426-2.631c-0.052-15.202-0.065-30.404,0.008-45.607c0.01-2.099-0.761-2.709-2.69-2.643
				c-2.965,0.101-5.938-0.054-8.903,0.065c-1.785,0.07-2.394-0.643-2.34-2.368c0.08-2.515-0.065-5.04,0.061-7.552
				c0.09-1.798-0.605-2.42-2.322-2.383c-3.35,0.072-6.703-0.045-10.052,0.051c-1.728,0.051-2.433-0.562-2.374-2.34
				c0.092-2.805-0.049-5.618,0.064-8.422c0.072-1.766-0.555-2.43-2.303-2.379c-3.158,0.09-6.321-0.022-9.479,0.055
				c-1.591,0.039-2.257-0.519-2.188-2.185c0.099-2.417-0.116-4.853,0.072-7.259c0.187-2.394-0.782-3.026-2.99-2.916
				c-3.152,0.157-6.318-0.008-9.476,0.067c-1.572,0.036-2.262-0.515-2.25-2.17c0.048-6.874,0.063-13.749,0.004-20.624
				c-0.017-1.928,0.782-2.52,2.598-2.462c3.252,0.103,6.512-0.032,9.765,0.058c1.751,0.047,2.393-0.638,2.333-2.389
				c-0.096-2.805,0.037-5.618-0.063-8.422c-0.064-1.791,0.659-2.413,2.368-2.361c2.775,0.083,5.563-0.116,8.327,0.071
				c2.442,0.166,3.571-0.518,3.293-3.197c-0.208-2.011,0.112-4.077-0.079-6.092c-0.236-2.521,0.826-3.178,3.137-3.053
				c3.056,0.165,6.127-0.027,9.189,0.064c1.889,0.057,2.529-0.683,2.43-2.579c-0.145-2.704,0.021-5.423-0.081-8.13
				c-0.067-1.792,0.64-2.403,2.37-2.338c2.773,0.103,5.562-0.104,8.327,0.074c2.498,0.162,3.293-0.679,3.271-3.282
				c-0.121-14.717-0.139-29.436,0.011-44.152c0.029-2.894-0.874-3.538-3.573-3.523C234.597,87.494,214.393,87.447,194.188,87.448z
				 M193.925,75.406c20.393,0,40.785-0.04,61.178,0.05c2.495,0.012,3.484-0.644,3.251-3.265c-0.215-2.401-0.168-4.845-0.012-7.255
				c0.138-2.133-0.547-2.88-2.733-2.877c-40.977,0.053-81.954,0.048-122.932,0.009c-1.944-0.002-2.807,0.546-2.671,2.642
				c0.148,2.314,0.212,4.664-0.016,6.964c-0.288,2.896,0.625,3.819,3.618,3.799C153.713,75.34,173.819,75.404,193.925,75.406z
				 M194.442,303.162c-20.391,0-40.782,0.037-61.172-0.049c-2.466-0.012-3.542,0.603-3.271,3.248
				c0.206,2.013,0.177,4.073,0.008,6.091c-0.196,2.347,0.539,3.222,3,3.219c40.782-0.064,81.563-0.059,122.345-0.016
				c2.147,0.003,3.225-0.504,2.991-2.931c-0.193-2.014-0.216-4.082,0.008-6.09c0.323-2.929-0.924-3.537-3.598-3.524
				C234.649,303.212,214.546,303.165,194.442,303.162z"/>
			<path fill-rule="evenodd" clip-rule="evenodd" fill="#FFFFFF" d="M165.959,125.783c-7.229,0-7.229,0-7.228-7.18
				c0-5.623,0-5.623,5.593-5.624c2.287,0,4.574,0.039,6.86-0.014c1.594-0.038,2.2,0.648,2.146,2.259
				c-0.09,2.695-0.125,5.399-0.004,8.092c0.086,1.929-0.694,2.589-2.509,2.485C169.203,125.709,167.58,125.783,165.959,125.783z"/>
			<path fill-rule="evenodd" clip-rule="evenodd" fill="#FFFFFF" d="M165.918,264.978c7.376,0,7.402,0,7.369,7.451
				c-0.027,6.107,0.725,5.345-5.367,5.401c-2.394,0.022-4.804,0.158-7.17-0.102c-0.734-0.08-1.862-1.244-1.924-1.988
				c-0.233-2.787-0.021-5.61-0.132-8.414c-0.071-1.79,0.628-2.45,2.342-2.363C162.66,265.043,164.291,264.979,165.918,264.978z"/>
			<path fill-rule="evenodd" clip-rule="evenodd" fill="#FFFFFF" d="M194.352,163.557c6.687-0.002,6.687-0.002,6.688,6.876
				c0.002,6.089,0.002,6.088-6.037,6.087c-1.62,0-3.248-0.101-4.857,0.028c-2.035,0.163-3.001-0.471-2.873-2.715
				c0.146-2.593,0.109-5.205,0.001-7.803c-0.079-1.895,0.646-2.63,2.507-2.496C191.297,163.645,192.827,163.557,194.352,163.557z"/>
			<path fill-rule="evenodd" clip-rule="evenodd" fill="#FFFFFF" d="M194.326,239.639c6.716-0.001,6.716-0.001,6.714,6.883
				c-0.002,6.055-0.002,6.055-6.154,6.053c-7.576-0.001-7.616-0.001-7.566-7.515c0.039-6.033-1.004-5.365,5.285-5.419
				C193.178,239.636,193.753,239.641,194.326,239.639z"/>
			<path fill-rule="evenodd" clip-rule="evenodd" fill="#FFFFFF" d="M194.149,151.142c-6.843-0.002-6.879-0.002-6.832-6.776
				c0.046-6.99-0.904-6.001,5.877-6.047c7.848-0.054,7.877-0.016,7.836,7.849c-0.027,5.369,0.91,4.959-4.869,4.974
				C195.489,151.144,194.819,151.142,194.149,151.142z"/>
			<path fill-rule="evenodd" clip-rule="evenodd" fill="#FFFFFF" d="M194.148,277.835c-6.835,0-6.868-0.001-6.831-6.808
				c0.037-6.937-0.887-6,5.877-6.041c7.844-0.049,7.844-0.015,7.846,7.824c0,0.099,0,0.195,0,0.292
				c0.002,4.731,0.002,4.731-4.598,4.732C195.678,277.835,194.913,277.835,194.148,277.835z"/>
			<path fill-rule="evenodd" clip-rule="evenodd" fill="#FFFFFF" d="M194,227.25c-6.693-0.001-6.693-0.001-6.694-6.886
				c0-6.055,0-6.055,6.046-6.055c1.811,0,3.624,0.08,5.429-0.024c1.779-0.101,2.346,0.673,2.286,2.391
				c-0.091,2.695-0.086,5.396,0.006,8.091c0.063,1.86-0.615,2.654-2.5,2.508C197.056,227.157,195.524,227.252,194,227.25z"/>
			<path fill-rule="evenodd" clip-rule="evenodd" fill="#FFFFFF" d="M194.342,112.98c6.698-0.002,6.731-0.002,6.688,6.909
				c-0.041,6.753,0.842,5.848-5.73,5.883c-7.992,0.042-8.012,0.008-7.986-7.955c0.016-5.065-0.836-4.829,4.734-4.836
				C192.813,112.98,193.577,112.981,194.342,112.98z"/>
			<path fill-rule="evenodd" clip-rule="evenodd" fill="#FFFFFF" d="M223.075,112.978c6.543,0.002,6.543,0.002,6.543,6.735
				c-0.001,6.07-0.001,6.071-6.074,6.07c-1.815,0-3.635-0.071-5.445,0.018c-1.766,0.087-2.353-0.675-2.282-2.41
				c0.106-2.604,0.146-5.223-0.009-7.822c-0.126-2.115,0.76-2.744,2.682-2.614C220.013,113.059,221.546,112.976,223.075,112.978z"/>
			<path fill-rule="evenodd" clip-rule="evenodd" fill="#FFFFFF" d="M222.607,277.835c-6.759,0-6.759,0-6.759-6.849
				c-0.002-6.012-0.002-6.012,6.17-6.012c7.603,0.002,7.633,0.002,7.588,7.716c-0.032,5.627,0.836,5.104-4.993,5.144
				C223.944,277.838,223.276,277.835,222.607,277.835z"/>
			<path fill-rule="evenodd" clip-rule="evenodd" fill="#FFFFFF" d="M208.606,138.1c-7.4,0-7.4,0-7.406-7.367
				c0-0.771,0.044-1.545-0.008-2.312c-0.113-1.688,0.548-2.475,2.305-2.437c3.334,0.072,6.679-0.093,10.002,0.109
				c0.756,0.046,2.003,1.138,2.068,1.839c0.256,2.772,0.254,5.589,0.061,8.368c-0.045,0.642-1.159,1.606-1.888,1.718
				C212.063,138.276,210.321,138.1,208.606,138.1z"/>
			<path fill-rule="evenodd" clip-rule="evenodd" fill="#FFFFFF" d="M208.63,252.767c7.041-0.003,7.041-0.003,7.045,7.04
				c0,0.58-0.066,1.167,0.014,1.735c0.359,2.558-0.71,3.443-3.223,3.286c-2.946-0.185-5.914-0.091-8.871-0.022
				c-1.686,0.039-2.46-0.604-2.409-2.363c0.069-2.411,0.091-4.83-0.011-7.236c-0.082-1.953,0.814-2.551,2.59-2.457
				C205.382,252.836,207.009,252.768,208.63,252.767z"/>
			<path fill-rule="evenodd" clip-rule="evenodd" fill="#FFFFFF" d="M180.319,125.998c6.826,0,6.842,0,6.822,6.839
				c-0.016,6.171,0.574,5.217-5.784,5.252c-7.938,0.043-7.938,0.01-7.926-7.97c0.005-4.114,0.005-4.114,4.021-4.12
				C178.407,125.997,179.363,125.999,180.319,125.998z"/>
			<path fill-rule="evenodd" clip-rule="evenodd" fill="#FFFFFF" d="M180.472,252.765c6.682-0.001,6.705,0,6.666,6.64
				c-0.035,6.074,0.723,5.328-5.336,5.378c-2,0.017-4.003-0.06-6,0.023c-1.696,0.07-2.439-0.584-2.383-2.345
				c0.078-2.406,0.1-4.819-0.017-7.222c-0.092-1.906,0.654-2.62,2.499-2.495C177.419,252.847,178.948,252.765,180.472,252.765z"/>
		</g>
	</g>
</g>
</svg>
