<?xml version="1.0" encoding="iso-8859-1"?>
<!-- Generator: Adobe Illustrator 17.1.0, SVG Export Plug-In . SVG Version: 6.00 Build 0)  -->
<!DOCTYPE svg PUBLIC "-//W3C//DTD SVG 1.1//EN" "http://www.w3.org/Graphics/SVG/1.1/DTD/svg11.dtd">
<svg xmlns="http://www.w3.org/2000/svg" xmlns:xlink="http://www.w3.org/1999/xlink" version="1.1" id="Capa_1" x="0px" y="0px" viewBox="0 0 217.55 217.55" style="enable-background:new 0 0 217.55 217.55;" xml:space="preserve" width="512px" height="512px">
<path d="M108.005,98.77l4.498,0.015c1.051,0.004,1.902,0.861,1.899,1.91l-0.006,1.769c-0.005,1.501-1.229,2.723-2.73,2.723v0.05  h-0.009v-0.05l-3.673-0.012L108.005,98.77z M212.877,93.129c-0.038,1.37-0.638,2.665-1.658,3.58l-26.19,23.508  c-0.987,0.887-2.297,1.345-3.609,1.273c-1.324-0.072-2.565-0.666-3.451-1.653l-8.566-9.544V212.55c0,2.762-2.238,5-5,5H53.148  c-2.762,0-5-2.238-5-5V110.292l-8.565,9.544c-0.886,0.986-2.127,1.581-3.451,1.653c-1.322,0.072-2.623-0.386-3.609-1.273  L6.331,96.709c-1.021-0.915-1.62-2.21-1.658-3.58c-0.038-1.37,0.487-2.696,1.454-3.668l30.053-30.19  c5.046-5.068,11.724-8.28,18.827-9.062l29.931-6.037c1.651-0.331,3.32,0.202,4.483,1.344l15.748-6.678v-5.823h-0.564  c-7.08,0-12.84-5.761-12.84-12.841V12.84c0-7.08,5.76-12.84,12.84-12.84h7.841c7.08,0,12.84,5.76,12.84,12.84c0,2.762-2.238,5-5,5  c-2.762,0-5-2.238-5-5c0-1.565-1.274-2.84-2.84-2.84h-7.841c-1.565,0-2.84,1.274-2.84,2.84v7.334c0,1.566,1.274,2.841,2.84,2.841  h5.564c2.762,0,5,2.238,5,5v11.025l13.218,6.234c1.146-0.976,2.694-1.411,4.227-1.101l29.932,6.037  c7.104,0.781,13.781,3.993,18.827,9.062l30.052,30.19C212.39,90.433,212.916,91.759,212.877,93.129z M93.937,127.132L80.734,92.851  c-0.742-1.926-2.59-3.198-4.653-3.203c-0.005,0-0.009,0-0.013,0c-2.059,0-3.907,1.262-4.657,3.18l-13.426,34.345  c-1.005,2.572,0.265,5.472,2.837,6.478c0.598,0.233,1.214,0.344,1.819,0.344c1.998,0,3.886-1.207,4.658-3.181l3.103-7.937  l11.169-0.027l3.034,7.877c0.992,2.577,3.888,3.861,6.463,2.869C93.645,132.602,94.929,129.709,93.937,127.132z M108.775,60.199  c8.011,0,11.465-2.427,14.245-6.401l-13.027-6.144L94.79,54.101C97.571,57.896,101.076,60.199,108.775,60.199z M126.639,118.512  c0.012-3.534-1.354-6.86-3.845-9.366c-0.066-0.066-0.139-0.123-0.206-0.188c1.134-1.896,1.801-4.101,1.809-6.462l0.006-1.769  c0.021-6.563-5.303-11.921-11.867-11.942l-9.499-0.03c-0.005,0-0.011,0-0.016,0c-0.334,0-0.664,0.034-0.986,0.099  c-0.193,0.039-0.372,0.108-0.556,0.169c-0.125,0.04-0.254,0.066-0.376,0.116c-0.19,0.079-0.363,0.186-0.54,0.287  c-0.105,0.06-0.217,0.105-0.318,0.172c-0.195,0.131-0.369,0.287-0.544,0.443c-0.066,0.059-0.142,0.104-0.205,0.167  c-0.001,0.002-0.002,0.003-0.004,0.005c-0.229,0.228-0.435,0.479-0.617,0.748c-0.055,0.082-0.091,0.175-0.142,0.26  c-0.115,0.194-0.233,0.387-0.321,0.597c-0.047,0.111-0.07,0.231-0.108,0.346c-0.065,0.193-0.139,0.383-0.18,0.587  c-0.066,0.323-0.102,0.654-0.103,0.988l-0.052,16.453c0,0,0,0.001,0,0.001l-0.06,18.689c-0.001,0.334,0.032,0.665,0.097,0.989  c0.041,0.209,0.115,0.405,0.182,0.605c0.037,0.109,0.058,0.224,0.102,0.331c0.086,0.207,0.2,0.397,0.312,0.589  c0.052,0.09,0.089,0.186,0.147,0.273c0.166,0.248,0.357,0.477,0.563,0.691c0.019,0.02,0.032,0.044,0.051,0.063  c0.021,0.021,0.046,0.035,0.067,0.055c0.212,0.206,0.438,0.398,0.684,0.564c0.089,0.06,0.188,0.099,0.281,0.153  c0.188,0.111,0.374,0.225,0.577,0.311c0.116,0.049,0.241,0.073,0.361,0.113c0.189,0.063,0.374,0.135,0.573,0.176  c0.323,0.066,0.655,0.102,0.989,0.103l10.25,0.032c0.006,0,0.043,0.002,0.043,0c7.392,0,13.423-6.013,13.446-13.403L126.639,118.512  z M139.584,120.28l0.05-17.9c0.006-1.933,2.468-3.621,5.269-3.621c0.007,0,0.014,0,0.02,0l0.256,0.001  c2.814,0.008,5.279,1.714,5.273,3.649c-0.008,2.762,2.225,5.007,4.985,5.015c0.005,0,0.01,0,0.015,0c2.755,0,4.992-2.229,5-4.985  c0.021-7.518-6.817-13.654-15.239-13.679l-0.257-0.001c-0.017,0-0.031,0-0.048,0c-8.404,0-15.252,6.089-15.273,13.593l-0.05,17.9  c-0.011,3.754,1.728,7.381,4.769,9.948c2.835,2.395,6.556,3.719,10.471,3.73l0.256,0.001c0.017,0,0.032,0,0.048,0  c3.903,0,7.613-1.303,10.449-3.67c3.056-2.552,4.814-6.168,4.824-9.922l0.003-1.054c0.008-2.761-2.225-5.006-4.986-5.014  c-0.005,0-0.009,0-0.014,0c-2.755,0-4.992,2.229-5,4.986l-0.003,1.054c-0.003,1.084-0.773,1.889-1.233,2.272  c-1.025,0.856-2.497,1.347-4.035,1.347c-0.006,0-0.013,0-0.02,0l-0.256-0.001c-1.55-0.004-3.026-0.503-4.052-1.369  C140.348,122.175,139.582,121.365,139.584,120.28z M74.315,112.866l3.409-0.008l-1.69-4.388L74.315,112.866z M113.421,115.241  l-5.469-0.018l-0.01,3.152l-0.018,5.536l5.249,0.017h0.012l0,0c1.895,0,3.44-1.541,3.446-3.436l0.007-2.015  c0.003-0.861-0.33-1.673-0.938-2.284C115.093,115.582,114.284,115.244,113.421,115.241z" fill="#FFFFFF"/>
<g>
</g>
<g>
</g>
<g>
</g>
<g>
</g>
<g>
</g>
<g>
</g>
<g>
</g>
<g>
</g>
<g>
</g>
<g>
</g>
<g>
</g>
<g>
</g>
<g>
</g>
<g>
</g>
<g>
</g>
</svg>
