<?xml version="1.0" encoding="utf-8"?>
<!-- Generator: Adobe Illustrator 16.0.3, SVG Export Plug-In . SVG Version: 6.00 Build 0)  -->
<!DOCTYPE svg PUBLIC "-//W3C//DTD SVG 1.1//EN" "http://www.w3.org/Graphics/SVG/1.1/DTD/svg11.dtd">
<svg version="1.1" id="Capa_1" xmlns="http://www.w3.org/2000/svg" xmlns:xlink="http://www.w3.org/1999/xlink" x="0px" y="0px"
	 width="512px" height="512px" viewBox="0 0 512 512" enable-background="new 0 0 512 512" xml:space="preserve">
<g>
	<path d="M414.239,225.943h-9.351v-75.925c0-80.935-64.228-148.545-144.504-149.988c-2.192-0.04-6.577-0.04-8.769,0
		c-53.086,0.954-99.152,30.841-124.27,74.383c-5.211,9.035,52.79,31.551,57.407,24.967c15.827-22.565,41.875-37.439,71.246-37.439
		c48.083,0,87.265,39.864,87.265,88.076v75.925H97.762c-14.41,0-26.163,14.869-26.163,33.233v219.476
		C71.6,496.991,83.353,512,97.762,512h316.477c14.41,0,26.162-15.008,26.162-33.349V259.175
		C440.402,240.811,428.649,225.943,414.239,225.943z M285.649,368.689v66.318c0,7.595-6.358,14.02-13.958,14.02H240.31
		c-7.601,0-13.958-6.425-13.958-14.02v-66.318c-7.371-7.256-11.663-17.288-11.663-28.387c0-21.031,16.257-39.104,36.928-39.938
		c2.191-0.089,6.579-0.089,8.768,0c20.67,0.834,36.928,18.906,36.928,39.938C297.313,351.398,293.021,361.433,285.649,368.689z"/>
</g>
</svg>
